<svg xmlns="http://www.w3.org/2000/svg" xmlns:xlink="http://www.w3.org/1999/xlink" width="500" zoomAndPan="magnify" viewBox="0 0 375 374.999991" height="500" preserveAspectRatio="xMidYMid meet" version="1.0"><defs><g/><clipPath id="id1"><path d="M 2 0 L 348 0 L 348 237.75 L 2 237.75 Z M 2 0 " clip-rule="nonzero"/></clipPath></defs><g fill="#0f3460" fill-opacity="1"><g transform="translate(31.079154, 312.248012)"><g><path d="M 42.359375 11.765625 C 38.617188 11.765625 34.75 11.140625 30.75 9.890625 C 26.75 8.648438 23.0625 6.835938 19.6875 4.453125 C 16.320312 2.066406 13.554688 -0.863281 11.390625 -4.34375 C 9.222656 -7.832031 8.140625 -11.8125 8.140625 -16.28125 C 8.140625 -18.476562 8.429688 -20.035156 9.015625 -20.953125 C 9.609375 -21.878906 10.125 -22.34375 10.5625 -22.34375 C 11.289062 -22.34375 12.078125 -21.660156 12.921875 -20.296875 C 13.765625 -18.941406 14.8125 -17.09375 16.0625 -14.75 C 17.382812 -12.25 18.90625 -9.953125 20.625 -7.859375 C 22.351562 -5.773438 24.316406 -3.960938 26.515625 -2.421875 C 28.710938 -0.878906 31.148438 0.328125 33.828125 1.203125 C 36.503906 2.085938 39.457031 2.53125 42.6875 2.53125 C 47.382812 2.53125 51.4375 1.757812 54.84375 0.21875 C 58.257812 -1.320312 61.175781 -3.375 63.59375 -5.9375 C 66.019531 -8.507812 68 -11.484375 69.53125 -14.859375 C 71.070312 -18.234375 72.320312 -21.734375 73.28125 -25.359375 C 74.238281 -28.992188 74.953125 -32.660156 75.421875 -36.359375 C 75.898438 -40.066406 76.285156 -43.570312 76.578125 -46.875 C 76.578125 -47.3125 76.59375 -47.953125 76.625 -48.796875 C 76.664062 -49.640625 76.703125 -50.59375 76.734375 -51.65625 C 76.773438 -52.71875 76.8125 -53.816406 76.84375 -54.953125 C 76.882812 -56.097656 76.976562 -57.144531 77.125 -58.09375 C 71.84375 -57.65625 66.46875 -57.066406 61 -56.328125 C 55.539062 -55.597656 50.0625 -54.921875 44.5625 -54.296875 C 39.0625 -53.671875 33.539062 -53.191406 28 -52.859375 C 22.46875 -52.535156 17.019531 -52.554688 11.65625 -52.921875 C 10.851562 -52.992188 9.863281 -53.160156 8.6875 -53.421875 C 7.519531 -53.679688 6.398438 -54.03125 5.328125 -54.46875 C 4.265625 -54.90625 3.367188 -55.488281 2.640625 -56.21875 C 1.910156 -56.957031 1.546875 -57.835938 1.546875 -58.859375 C 1.546875 -59.742188 2.238281 -60.40625 3.625 -60.84375 C 5.019531 -61.28125 6.6875 -61.59375 8.625 -61.78125 C 10.570312 -61.96875 12.609375 -62.039062 14.734375 -62 C 16.867188 -61.96875 18.671875 -61.953125 20.140625 -61.953125 C 26.960938 -62.171875 33.015625 -62.367188 38.296875 -62.546875 C 43.578125 -62.734375 48.363281 -62.914062 52.65625 -63.09375 C 56.945312 -63.28125 60.851562 -63.425781 64.375 -63.53125 C 67.894531 -63.644531 71.378906 -63.738281 74.828125 -63.8125 C 75.265625 -63.8125 76.363281 -63.882812 78.125 -64.03125 C 79.882812 -64.1875 81.734375 -64.265625 83.671875 -64.265625 C 85.617188 -64.265625 87.34375 -64.097656 88.84375 -63.765625 C 90.351562 -63.429688 91.109375 -62.753906 91.109375 -61.734375 C 91.109375 -60.921875 90.796875 -60.296875 90.171875 -59.859375 C 89.546875 -59.421875 88.71875 -59.085938 87.6875 -58.859375 C 86.664062 -58.640625 85.492188 -58.472656 84.171875 -58.359375 C 82.847656 -58.253906 81.53125 -58.203125 80.21875 -58.203125 C 80.582031 -56.960938 80.925781 -55.5 81.25 -53.8125 C 81.582031 -52.125 81.878906 -50.34375 82.140625 -48.46875 C 82.398438 -46.59375 82.601562 -44.738281 82.75 -42.90625 C 82.894531 -41.070312 82.96875 -39.382812 82.96875 -37.84375 C 82.96875 -31.757812 82.101562 -25.765625 80.375 -19.859375 C 78.65625 -13.953125 76.085938 -8.648438 72.671875 -3.953125 C 69.265625 0.734375 65.03125 4.523438 59.96875 7.421875 C 54.90625 10.316406 49.035156 11.765625 42.359375 11.765625 Z M 42.359375 11.765625 "/></g></g></g><g fill="#0f3460" fill-opacity="1"><g transform="translate(119.4263, 312.248012)"><g><path d="M 10.015625 -2.859375 C 7.296875 -2.859375 5.128906 -3.554688 3.515625 -4.953125 C 1.898438 -6.347656 0.78125 -8.070312 0.15625 -10.125 C -0.457031 -12.175781 -0.632812 -14.410156 -0.375 -16.828125 C -0.125 -19.253906 0.492188 -21.472656 1.484375 -23.484375 C 2.472656 -25.503906 3.773438 -27.175781 5.390625 -28.5 C 7.003906 -29.820312 8.910156 -30.410156 11.109375 -30.265625 C 13.679688 -30.109375 15.773438 -29.332031 17.390625 -27.9375 C 19.003906 -26.550781 20.175781 -24.832031 20.90625 -22.78125 C 21.632812 -20.726562 21.941406 -18.546875 21.828125 -16.234375 C 21.722656 -13.921875 21.191406 -11.773438 20.234375 -9.796875 C 19.285156 -7.816406 17.945312 -6.164062 16.21875 -4.84375 C 14.5 -3.519531 12.429688 -2.859375 10.015625 -2.859375 Z M 11.4375 -7.8125 C 12.25 -7.738281 12.910156 -8.125 13.421875 -8.96875 C 13.929688 -9.8125 14.296875 -10.910156 14.515625 -12.265625 C 14.742188 -13.617188 14.835938 -15.101562 14.796875 -16.71875 C 14.765625 -18.332031 14.582031 -19.835938 14.25 -21.234375 C 13.914062 -22.628906 13.457031 -23.800781 12.875 -24.75 C 12.289062 -25.707031 11.59375 -26.1875 10.78125 -26.1875 C 10.050781 -26.1875 9.425781 -25.742188 8.90625 -24.859375 C 8.394531 -23.984375 8.007812 -22.882812 7.75 -21.5625 C 7.5 -20.238281 7.375 -18.789062 7.375 -17.21875 C 7.375 -15.644531 7.519531 -14.175781 7.8125 -12.8125 C 8.101562 -11.457031 8.539062 -10.300781 9.125 -9.34375 C 9.71875 -8.394531 10.488281 -7.882812 11.4375 -7.8125 Z M 11.4375 -7.8125 "/></g></g></g><g fill="#0f3460" fill-opacity="1"><g transform="translate(143.961061, 312.248012)"><g/></g></g><g fill="#0f3460" fill-opacity="1"><g transform="translate(163.654876, 312.248012)"><g><path d="M 25.53125 -56.34375 C 21.789062 -55.019531 18.742188 -53.953125 16.390625 -53.140625 C 14.046875 -52.335938 12.15625 -51.695312 10.71875 -51.21875 C 9.289062 -50.738281 8.191406 -50.40625 7.421875 -50.21875 C 6.648438 -50.039062 5.972656 -49.953125 5.390625 -49.953125 C 3.628906 -49.953125 2.75 -50.394531 2.75 -51.28125 C 2.75 -51.789062 3.003906 -52.375 3.515625 -53.03125 C 4.035156 -53.695312 4.601562 -54.320312 5.21875 -54.90625 C 5.84375 -55.488281 6.445312 -56 7.03125 -56.4375 C 7.625 -56.882812 8.03125 -57.144531 8.25 -57.21875 C 11.257812 -59.269531 14.5625 -61.046875 18.15625 -62.546875 C 21.75 -64.054688 25.46875 -65.304688 29.3125 -66.296875 C 33.164062 -67.285156 37.09375 -68.035156 41.09375 -68.546875 C 45.09375 -69.054688 49.035156 -69.3125 52.921875 -69.3125 C 55.273438 -69.3125 57.734375 -69.203125 60.296875 -68.984375 C 62.859375 -68.765625 65.316406 -68.507812 67.671875 -68.21875 C 69.648438 -67.925781 71.867188 -67.519531 74.328125 -67 C 76.785156 -66.488281 79.296875 -65.828125 81.859375 -65.015625 C 84.429688 -64.210938 86.925781 -63.242188 89.34375 -62.109375 C 91.757812 -60.972656 93.921875 -59.632812 95.828125 -58.09375 C 97.742188 -56.550781 99.269531 -54.769531 100.40625 -52.75 C 101.539062 -50.738281 102.109375 -48.488281 102.109375 -46 C 102.109375 -42.40625 101.132812 -39.226562 99.1875 -36.46875 C 97.25 -33.71875 94.738281 -31.351562 91.65625 -29.375 C 88.570312 -27.394531 85.101562 -25.707031 81.25 -24.3125 C 77.40625 -22.914062 73.554688 -21.757812 69.703125 -20.84375 C 65.847656 -19.925781 62.175781 -19.191406 58.6875 -18.640625 C 55.207031 -18.097656 52.332031 -17.679688 50.0625 -17.390625 C 49.988281 -15.109375 49.820312 -12.425781 49.5625 -9.34375 C 49.3125 -6.269531 48.960938 -3.335938 48.515625 -0.546875 C 48.078125 2.234375 47.53125 4.597656 46.875 6.546875 C 46.21875 8.492188 45.410156 9.46875 44.453125 9.46875 C 43.867188 9.46875 43.390625 8.878906 43.015625 7.703125 C 41.992188 5.054688 41.390625 1.828125 41.203125 -1.984375 C 41.023438 -5.796875 40.9375 -10.523438 40.9375 -16.171875 C 37.707031 -15.804688 34.53125 -15.476562 31.40625 -15.1875 C 28.289062 -14.894531 25.191406 -14.597656 22.109375 -14.296875 C 22.035156 -14.378906 21.539062 -14.378906 20.625 -14.296875 C 19.707031 -14.222656 18.550781 -14.128906 17.15625 -14.015625 C 15.769531 -13.910156 14.285156 -13.820312 12.703125 -13.75 C 11.128906 -13.675781 9.660156 -13.675781 8.296875 -13.75 C 6.941406 -13.820312 5.804688 -14.003906 4.890625 -14.296875 C 3.972656 -14.597656 3.515625 -15.039062 3.515625 -15.625 C 3.515625 -16.207031 4.375 -16.753906 6.09375 -17.265625 C 7.820312 -17.785156 9.84375 -18.226562 12.15625 -18.59375 C 14.46875 -18.957031 16.722656 -19.25 18.921875 -19.46875 C 21.117188 -19.695312 22.734375 -19.882812 23.765625 -20.03125 C 26.554688 -20.175781 29.378906 -20.445312 32.234375 -20.84375 C 35.097656 -21.25 38.035156 -21.671875 41.046875 -22.109375 C 41.265625 -22.703125 41.425781 -23.726562 41.53125 -25.1875 C 41.644531 -26.65625 41.773438 -28.304688 41.921875 -30.140625 C 42.066406 -31.984375 42.226562 -33.875 42.40625 -35.8125 C 42.59375 -37.757812 42.832031 -39.539062 43.125 -41.15625 C 43.425781 -42.769531 43.8125 -44.109375 44.28125 -45.171875 C 44.757812 -46.234375 45.40625 -46.765625 46.21875 -46.765625 C 47.832031 -46.765625 49.078125 -46.320312 49.953125 -45.4375 C 50.835938 -44.5625 51.441406 -43.425781 51.765625 -42.03125 C 52.097656 -40.632812 52.242188 -39.09375 52.203125 -37.40625 C 52.171875 -35.71875 52.046875 -34.007812 51.828125 -32.28125 C 51.609375 -30.5625 51.347656 -28.953125 51.046875 -27.453125 C 50.753906 -25.953125 50.570312 -24.722656 50.5 -23.765625 C 52.113281 -23.984375 54.332031 -24.332031 57.15625 -24.8125 C 59.976562 -25.289062 63.003906 -25.914062 66.234375 -26.6875 C 69.460938 -27.457031 72.726562 -28.390625 76.03125 -29.484375 C 79.332031 -30.585938 82.320312 -31.910156 85 -33.453125 C 87.675781 -34.992188 89.859375 -36.734375 91.546875 -38.671875 C 93.234375 -40.617188 94.078125 -42.835938 94.078125 -45.328125 C 94.078125 -47.304688 93.394531 -49.046875 92.03125 -50.546875 C 90.675781 -52.054688 88.898438 -53.378906 86.703125 -54.515625 C 84.503906 -55.648438 81.992188 -56.601562 79.171875 -57.375 C 76.347656 -58.144531 73.445312 -58.769531 70.46875 -59.25 C 67.5 -59.726562 64.566406 -60.054688 61.671875 -60.234375 C 58.773438 -60.421875 56.191406 -60.515625 53.921875 -60.515625 C 49.078125 -60.515625 44.285156 -60.128906 39.546875 -59.359375 C 34.816406 -58.585938 30.144531 -57.582031 25.53125 -56.34375 Z M 25.53125 -56.34375 "/></g></g></g><g fill="#0f3460" fill-opacity="1"><g transform="translate(260.583703, 312.248012)"><g><path d="M 12.984375 -30.03125 C 14.015625 -29.8125 14.910156 -29.335938 15.671875 -28.609375 C 16.441406 -27.878906 17.085938 -27.070312 17.609375 -26.1875 C 18.191406 -26.84375 18.921875 -27.207031 19.796875 -27.28125 C 20.679688 -27.351562 21.523438 -27.222656 22.328125 -26.890625 C 23.140625 -26.566406 23.800781 -26.054688 24.3125 -25.359375 C 24.832031 -24.660156 25.015625 -23.835938 24.859375 -22.890625 C 24.566406 -21.566406 24.289062 -19.914062 24.03125 -17.9375 C 23.78125 -15.957031 23.617188 -14.050781 23.546875 -12.21875 C 23.472656 -10.382812 23.523438 -8.804688 23.703125 -7.484375 C 23.890625 -6.160156 24.273438 -5.5 24.859375 -5.5 C 25.304688 -5.5 25.835938 -6.066406 26.453125 -7.203125 C 27.078125 -8.335938 27.703125 -9.675781 28.328125 -11.21875 C 28.953125 -12.757812 29.519531 -14.300781 30.03125 -15.84375 C 30.550781 -17.382812 30.882812 -18.554688 31.03125 -19.359375 C 31.25 -20.097656 31.613281 -20.59375 32.125 -20.84375 C 32.644531 -21.101562 33.140625 -21.175781 33.609375 -21.0625 C 34.085938 -20.957031 34.488281 -20.679688 34.8125 -20.234375 C 35.144531 -19.796875 35.203125 -19.25 34.984375 -18.59375 C 34.835938 -18.15625 34.597656 -17.328125 34.265625 -16.109375 C 33.941406 -14.898438 33.519531 -13.5625 33 -12.09375 C 32.488281 -10.632812 31.882812 -9.113281 31.1875 -7.53125 C 30.5 -5.957031 29.691406 -4.566406 28.765625 -3.359375 C 27.847656 -2.148438 26.820312 -1.210938 25.6875 -0.546875 C 24.550781 0.109375 23.320312 0.253906 22 -0.109375 C 19.875 -0.691406 18.335938 -1.976562 17.390625 -3.96875 C 16.796875 -2.207031 15.984375 -0.613281 14.953125 0.8125 C 13.929688 2.25 12.613281 3.300781 11 3.96875 C 9.457031 4.476562 8.101562 4.585938 6.9375 4.296875 C 4.800781 3.703125 3.109375 2.378906 1.859375 0.328125 C 0.617188 -1.722656 -0.21875 -4.101562 -0.65625 -6.8125 C -1.101562 -9.53125 -1.140625 -12.359375 -0.765625 -15.296875 C -0.398438 -18.234375 0.347656 -20.875 1.484375 -23.21875 C 2.617188 -25.5625 4.140625 -27.410156 6.046875 -28.765625 C 7.953125 -30.128906 10.265625 -30.550781 12.984375 -30.03125 Z M 15.84375 -18.921875 C 15.695312 -20.171875 15.421875 -21.378906 15.015625 -22.546875 C 14.617188 -23.722656 14.015625 -24.382812 13.203125 -24.53125 C 12.023438 -24.75 10.976562 -24.328125 10.0625 -23.265625 C 9.144531 -22.203125 8.394531 -20.789062 7.8125 -19.03125 C 7.226562 -17.269531 6.804688 -15.34375 6.546875 -13.25 C 6.285156 -11.164062 6.207031 -9.1875 6.3125 -7.3125 C 6.425781 -5.445312 6.722656 -3.851562 7.203125 -2.53125 C 7.679688 -1.207031 8.398438 -0.472656 9.359375 -0.328125 C 10.304688 -0.179688 11.203125 -0.691406 12.046875 -1.859375 C 12.890625 -3.035156 13.625 -4.539062 14.25 -6.375 C 14.875 -8.207031 15.347656 -10.242188 15.671875 -12.484375 C 16.003906 -14.722656 16.0625 -16.867188 15.84375 -18.921875 Z M 15.84375 -18.921875 "/></g></g></g><g fill="#0f3460" fill-opacity="1"><g transform="translate(291.609726, 312.248012)"><g><path d="M 20.359375 13.3125 C 20.359375 14.78125 19.878906 16.097656 18.921875 17.265625 C 17.972656 18.441406 16.925781 19.320312 15.78125 19.90625 C 14.644531 20.5 13.617188 20.722656 12.703125 20.578125 C 11.785156 20.429688 11.398438 19.734375 11.546875 18.484375 C 11.617188 17.535156 11.710938 16.175781 11.828125 14.40625 C 11.941406 12.644531 12.070312 10.664062 12.21875 8.46875 C 12.363281 6.269531 12.488281 3.90625 12.59375 1.375 C 12.707031 -1.15625 12.835938 -3.703125 12.984375 -6.265625 C 12.253906 -4.285156 11.226562 -2.597656 9.90625 -1.203125 C 9.164062 -0.472656 8.300781 -0.0703125 7.3125 0 C 6.320312 0.0703125 5.367188 -0.109375 4.453125 -0.546875 C 3.535156 -0.984375 2.707031 -1.625 1.96875 -2.46875 C 1.238281 -3.3125 0.765625 -4.285156 0.546875 -5.390625 C 0.328125 -6.492188 0.179688 -7.960938 0.109375 -9.796875 C 0.0351562 -11.628906 0 -13.609375 0 -15.734375 C 0 -17.859375 0.0351562 -20.039062 0.109375 -22.28125 C 0.179688 -24.519531 0.21875 -26.664062 0.21875 -28.71875 C 0.289062 -30.039062 0.785156 -31.007812 1.703125 -31.625 C 2.617188 -32.25 3.625 -32.617188 4.71875 -32.734375 C 5.820312 -32.847656 6.832031 -32.703125 7.75 -32.296875 C 8.664062 -31.890625 9.085938 -31.285156 9.015625 -30.484375 C 8.867188 -28.128906 8.6875 -25.59375 8.46875 -22.875 C 8.25 -20.164062 8.046875 -17.617188 7.859375 -15.234375 C 7.679688 -12.847656 7.609375 -10.832031 7.640625 -9.1875 C 7.679688 -7.539062 7.921875 -6.640625 8.359375 -6.484375 C 8.796875 -6.335938 9.21875 -6.628906 9.625 -7.359375 C 10.03125 -8.097656 10.429688 -9.09375 10.828125 -10.34375 C 11.234375 -11.59375 11.617188 -12.96875 11.984375 -14.46875 C 12.359375 -15.96875 12.671875 -17.429688 12.921875 -18.859375 C 13.179688 -20.296875 13.398438 -21.582031 13.578125 -22.71875 C 13.765625 -23.851562 13.859375 -24.679688 13.859375 -25.203125 C 14.742188 -25.640625 15.3125 -25.632812 15.5625 -25.1875 C 15.820312 -24.75 16.0625 -23.945312 16.28125 -22.78125 C 16.351562 -22.488281 16.367188 -21.769531 16.328125 -20.625 C 16.296875 -19.488281 16.148438 -18.128906 15.890625 -16.546875 C 15.640625 -14.972656 15.273438 -13.269531 14.796875 -11.4375 C 14.316406 -9.601562 13.710938 -7.878906 12.984375 -6.265625 C 13.203125 -10.304688 13.382812 -14.140625 13.53125 -17.765625 C 13.675781 -21.398438 13.785156 -24.28125 13.859375 -26.40625 C 13.859375 -27.289062 14.296875 -27.96875 15.171875 -28.4375 C 16.054688 -28.914062 17.007812 -29.171875 18.03125 -29.203125 C 19.0625 -29.242188 19.976562 -29.046875 20.78125 -28.609375 C 21.59375 -28.171875 21.960938 -27.507812 21.890625 -26.625 C 21.671875 -25.082031 21.488281 -23.101562 21.34375 -20.6875 C 21.195312 -18.269531 21.066406 -15.679688 20.953125 -12.921875 C 20.847656 -10.171875 20.757812 -7.382812 20.6875 -4.5625 C 20.613281 -1.738281 20.554688 0.878906 20.515625 3.296875 C 20.484375 5.722656 20.445312 7.832031 20.40625 9.625 C 20.375 11.425781 20.359375 12.65625 20.359375 13.3125 Z M 20.359375 13.3125 "/></g></g></g><g fill="#545454" fill-opacity="1"><g transform="translate(167.053022, 359.849976)"><g><path d="M 17.273438 0.0976562 L 22.722656 -16.289062 L 22.722656 -16.792969 L 18.617188 -16.792969 L 15.402344 -7.078125 L 13.316406 -12.957031 L 9.835938 -12.957031 L 7.726562 -7.078125 L 4.511719 -16.792969 L 0.40625 -16.792969 L 0.40625 -16.289062 L 5.855469 0.0976562 L 9.476562 0.0976562 L 11.539062 -5.734375 L 13.652344 0.0976562 Z M 17.273438 0.0976562 "/></g></g></g><g fill="#545454" fill-opacity="1"><g transform="translate(191.161548, 359.849976)"><g><path d="M 13.722656 -6.527344 C 13.722656 -10.964844 10.363281 -13.171875 7.03125 -13.171875 C 3.648438 -13.171875 0.3125 -10.964844 0.3125 -6.527344 C 0.3125 -2.085938 3.648438 0.144531 7.003906 0.144531 C 9.691406 0.144531 12.355469 -1.273438 13.339844 -4.101562 L 9.238281 -4.101562 C 8.683594 -3.503906 7.894531 -3.214844 7.054688 -3.214844 C 5.902344 -3.238281 4.726562 -3.839844 4.269531 -5.039062 L 13.578125 -5.039062 C 13.675781 -5.519531 13.722656 -6 13.722656 -6.527344 Z M 9.597656 -7.988281 L 4.414062 -7.988281 C 4.796875 -9.261719 5.832031 -9.886719 6.957031 -9.886719 C 8.179688 -9.886719 9.238281 -9.285156 9.597656 -7.988281 Z M 9.597656 -7.988281 "/></g></g></g><g fill="#545454" fill-opacity="1"><g transform="translate(207.210023, 359.849976)"><g><path d="M 7.820312 -13.195312 C 6.550781 -13.195312 5.300781 -12.789062 4.4375 -11.804688 L 4.4375 -17.082031 L 0.695312 -17.082031 L 0.695312 0 L 4.4375 0 L 4.4375 -1.296875 C 5.328125 -0.191406 6.621094 0.167969 7.871094 0.167969 C 11.972656 0.167969 14.109375 -3.09375 14.109375 -6.667969 C 14.109375 -10.222656 12.042969 -13.195312 7.820312 -13.195312 Z M 7.414062 -3.453125 C 5.78125 -3.453125 4.4375 -4.847656 4.4375 -6.574219 C 4.4375 -8.300781 5.78125 -9.71875 7.414062 -9.71875 C 9.355469 -9.71875 10.316406 -8.15625 10.316406 -6.574219 C 10.316406 -5.015625 9.332031 -3.453125 7.414062 -3.453125 Z M 7.414062 -3.453125 "/></g></g></g><g fill="#545454" fill-opacity="1"><g transform="translate(223.282488, 359.849976)"><g/></g></g><g fill="#545454" fill-opacity="1"><g transform="translate(229.999529, 359.849976)"><g><path d="M 7.84375 -16.792969 L 1.175781 -16.792969 L 1.175781 0 L 7.84375 0 C 13.386719 0 16.171875 -4.175781 16.171875 -8.375 C 16.171875 -12.570312 13.386719 -16.792969 7.84375 -16.792969 Z M 7.84375 -3.910156 L 5.253906 -3.910156 L 5.253906 -12.90625 L 7.84375 -12.90625 C 10.675781 -12.90625 12.117188 -10.582031 12.117188 -8.375 C 12.117188 -6.167969 10.675781 -3.910156 7.84375 -3.910156 Z M 7.84375 -3.910156 "/></g></g></g><g fill="#545454" fill-opacity="1"><g transform="translate(247.583249, 359.849976)"><g><path d="M 13.722656 -6.527344 C 13.722656 -10.964844 10.363281 -13.171875 7.03125 -13.171875 C 3.648438 -13.171875 0.3125 -10.964844 0.3125 -6.527344 C 0.3125 -2.085938 3.648438 0.144531 7.003906 0.144531 C 9.691406 0.144531 12.355469 -1.273438 13.339844 -4.101562 L 9.238281 -4.101562 C 8.683594 -3.503906 7.894531 -3.214844 7.054688 -3.214844 C 5.902344 -3.238281 4.726562 -3.839844 4.269531 -5.039062 L 13.578125 -5.039062 C 13.675781 -5.519531 13.722656 -6 13.722656 -6.527344 Z M 9.597656 -7.988281 L 4.414062 -7.988281 C 4.796875 -9.261719 5.832031 -9.886719 6.957031 -9.886719 C 8.179688 -9.886719 9.238281 -9.285156 9.597656 -7.988281 Z M 9.597656 -7.988281 "/></g></g></g><g fill="#545454" fill-opacity="1"><g transform="translate(263.631721, 359.849976)"><g><path d="M 0.480469 -8.804688 C 0.480469 -5.949219 3.023438 -5.015625 5.46875 -4.796875 C 6.09375 -4.75 7.535156 -4.871094 7.535156 -3.933594 C 7.535156 -3.503906 6.910156 -3.144531 5.972656 -3.144531 C 5.085938 -3.144531 4.101562 -3.480469 4.078125 -4.367188 L 0.289062 -4.367188 C 0.335938 -1.054688 2.6875 0.335938 5.78125 0.335938 C 8.660156 0.335938 11.324219 -0.769531 11.324219 -4.03125 C 11.324219 -7.101562 8.566406 -8.253906 5.855469 -8.324219 C 5.300781 -8.347656 4.292969 -8.375 4.292969 -9.046875 C 4.292969 -9.742188 5.0625 -9.933594 5.613281 -9.933594 C 6.40625 -9.933594 7.414062 -9.859375 7.4375 -8.851562 L 11.058594 -8.851562 C 11.035156 -11.875 8.613281 -13.292969 5.832031 -13.292969 C 2.925781 -13.292969 0.480469 -11.949219 0.480469 -8.804688 Z M 0.480469 -8.804688 "/></g></g></g><g fill="#545454" fill-opacity="1"><g transform="translate(276.681659, 359.849976)"><g><path d="M 0.527344 -15.835938 C 0.527344 -14.417969 1.679688 -13.722656 2.832031 -13.722656 C 3.933594 -13.722656 5.0625 -14.417969 5.0625 -15.835938 C 5.0625 -17.324219 3.910156 -18.042969 2.757812 -18.042969 C 1.65625 -18.042969 0.527344 -17.296875 0.527344 -15.835938 Z M 0.886719 -12.980469 L 4.726562 -12.980469 L 4.726562 0 L 0.886719 0 Z M 0.886719 -12.980469 "/></g></g></g><g fill="#545454" fill-opacity="1"><g transform="translate(283.806509, 359.849976)"><g><path d="M 6.550781 -0.046875 C 7.84375 -0.046875 9.070312 -0.40625 9.910156 -1.390625 L 9.910156 -0.71875 C 9.789062 1.609375 8.277344 2.328125 6.886719 2.328125 C 5.710938 2.328125 4.628906 1.679688 4.628906 0.910156 L 0.671875 0.910156 C 0.671875 4.054688 3.863281 6 7.078125 6 C 10.363281 6 13.675781 4.054688 13.675781 -0.742188 L 13.675781 -12.980469 L 9.910156 -12.980469 L 9.910156 -11.683594 C 9.046875 -12.8125 7.75 -13.125 6.476562 -13.125 C 2.375 -13.125 0.289062 -10.101562 0.289062 -6.382812 C 0.289062 -2.808594 2.375 -0.046875 6.550781 -0.046875 Z M 6.980469 -9.523438 C 8.589844 -9.523438 9.910156 -8.109375 9.910156 -6.382812 C 9.910156 -4.582031 8.445312 -3.648438 6.980469 -3.621094 C 5.519531 -3.621094 4.078125 -4.535156 4.078125 -6.382812 C 4.078125 -7.941406 5.039062 -9.523438 6.980469 -9.523438 Z M 6.980469 -9.523438 "/></g></g></g><g fill="#545454" fill-opacity="1"><g transform="translate(299.854981, 359.849976)"><g><path d="M 4.367188 -11.683594 L 4.367188 -12.980469 L 0.550781 -12.980469 L 0.550781 0 L 4.558594 0 L 4.558594 -7.054688 C 4.558594 -8.710938 5.902344 -9.667969 7.03125 -9.667969 C 8.0625 -9.667969 9.046875 -8.878906 9.046875 -7.125 L 9.046875 0 L 12.882812 0 L 12.882812 -7.148438 C 12.90625 -10.390625 11.898438 -13.125 8.207031 -13.171875 C 6.8125 -13.171875 5.277344 -12.835938 4.367188 -11.683594 Z M 4.367188 -11.683594 "/></g></g></g><g clip-path="url(#id1)"><path fill="#e94560" d="M 305.261719 227.074219 L 44.238281 227.074219 C 28.726562 227.074219 15.84375 215.804688 13.304688 201.015625 L 336.164062 201.015625 C 333.683594 215.804688 320.773438 227.074219 305.261719 227.074219 Z M 33.101562 17.109375 C 33.101562 13.351562 36.039062 10.386719 39.800781 10.386719 L 309.636719 10.386719 C 313.402344 10.386719 316.367188 13.351562 316.367188 17.109375 L 316.367188 190.507812 L 33.101562 190.507812 Z M 341.824219 190.570312 L 326.863281 190.570312 L 326.863281 17.109375 C 326.863281 7.667969 319.183594 -0.03125 309.667969 -0.03125 L 39.800781 -0.03125 C 30.347656 -0.03125 22.636719 7.667969 22.636719 17.109375 L 22.636719 190.507812 L 7.675781 190.507812 C 4.769531 190.570312 2.445312 192.890625 2.445312 195.792969 C 2.445312 218.796875 21.199219 237.523438 44.238281 237.523438 L 305.261719 237.523438 C 328.300781 237.523438 347.054688 218.796875 347.054688 195.792969 C 347.054688 192.890625 344.761719 190.570312 341.824219 190.570312 " fill-opacity="1" fill-rule="nonzero"/></g><path fill="#e94560" d="M 286.417969 167.289062 L 63.082031 167.289062 L 63.082031 33.941406 L 286.386719 33.941406 L 286.386719 167.289062 Z M 291.648438 23.523438 L 57.851562 23.523438 C 54.945312 23.523438 52.621094 25.84375 52.621094 28.746094 L 52.621094 172.515625 C 52.621094 175.417969 54.945312 177.738281 57.851562 177.738281 L 291.585938 177.738281 C 294.496094 177.738281 296.820312 175.417969 296.820312 172.515625 L 296.820312 28.746094 C 296.878906 25.84375 294.496094 23.523438 291.648438 23.523438 " fill-opacity="1" fill-rule="nonzero"/><path fill="#e94560" d="M 160.035156 142.027344 C 160.644531 142.238281 161.195312 142.332031 161.777344 142.332031 C 163.917969 142.332031 165.910156 140.988281 166.671875 138.847656 L 192.339844 65.835938 C 193.320312 63.085938 191.851562 60.121094 189.191406 59.175781 C 186.4375 58.195312 183.46875 59.664062 182.488281 62.351562 L 156.820312 135.367188 C 155.902344 138.085938 157.371094 141.046875 160.035156 142.027344 Z M 241.628906 101.699219 L 206.691406 129.347656 C 204.425781 131.121094 204.027344 134.386719 205.832031 136.648438 C 206.84375 137.933594 208.402344 138.632812 209.902344 138.632812 C 211.035156 138.632812 212.167969 138.269531 213.144531 137.503906 L 253.222656 105.824219 C 254.445312 104.878906 255.210938 103.351562 255.210938 101.792969 C 255.210938 100.234375 254.476562 98.738281 253.253906 97.726562 L 211.523438 63.726562 C 209.261719 61.925781 205.984375 62.230469 204.210938 64.492188 C 202.375 66.75 202.710938 70.019531 204.945312 71.792969 Z M 136.355469 137.503906 C 137.332031 138.269531 138.464844 138.632812 139.597656 138.632812 C 141.15625 138.632812 142.65625 137.933594 143.667969 136.648438 C 145.472656 134.386719 145.074219 131.121094 142.808594 129.347656 L 107.871094 101.699219 L 144.554688 71.792969 C 146.789062 69.988281 147.125 66.691406 145.289062 64.492188 C 143.484375 62.230469 140.179688 61.925781 137.976562 63.726562 L 96.246094 97.726562 C 95.023438 98.738281 94.289062 100.171875 94.289062 101.792969 C 94.289062 103.351562 95.054688 104.878906 96.308594 105.824219 L 136.355469 137.503906 " fill-opacity="1" fill-rule="nonzero"/></svg>